<svg
        viewBox="0 0 350 267.56435859713105"
        preserveAspectRatio="xMidYMid meet"
        className="css-8aabad"
        id="bcgbcfde"
>
    <defs id="SvgjsDefs1001"></defs>
    <g
            id="SvgjsG1007"
            transform="matrix(13.435700477441209,0,0,13.435700477441209,95.59500902512703,-73.31862350201287)"
            fill="currentColor"
    >
        <path d="M4.94 9.18 l-4.24 0 l0 -2.16 l0 0 l4.18 0 c4.46 0 4.74 6.76 0.88 7.62 c-0.28 0.08 -0.56 0.1 -0.88 0.1 l-2 0 l0 0.02 l0 5.24 l-2.18 0 l0 -7.44 l2.18 2.2 l5.28 5.24 l2.96 0 l-7.44 -7.44 l1.26 0 l0 0 c1.86 0 1.86 -3.38 0 -3.38 z"></path>
    </g>
    <g
            id="SvgjsG1008"
            transform="matrix(3.772137726705517,0,0,3.772137726705517,-4.526565451916164,191.3671736397669)"
            fill="currentColor"
    >
        <path d="M9 20 l-2.86 -4.58 l-1.72 0 l0 4.58 l-3.22 0 l0 -14 l4.98 0 c3.14 0 5.22 1.9 5.22 4.82 c0 1.86 -0.88 3.26 -2.36 3.98 l3.36 5.2 l-3.4 0 z M4.42 8.96 l0 3.72 l1.56 0 c1.3 0 2.2 -0.46 2.2 -1.86 c0 -1.38 -0.9 -1.86 -2.2 -1.86 l-1.56 0 z M17.82 20.16 c-1.94 0 -3.92 -1.3 -3.92 -4.6 l0 -5.96 l3.16 0 l0 5.74 c0 1.58 0.54 2.08 1.54 2.08 c1.42 0 2.24 -1.38 2.44 -1.98 l0 -5.84 l3.16 0 l0 10.4 l-3.16 0 l0 -1.8 c-0.2 0.5 -1.26 1.96 -3.22 1.96 z M32.62 9.44 c1.94 0 3.92 1.3 3.92 4.6 l0 5.96 l-3.16 0 l0 -5.74 c0 -1.58 -0.54 -2.08 -1.54 -2.08 c-1.42 0 -2.24 1.38 -2.44 1.98 l0 5.84 l-3.16 0 l0 -10.4 l3.16 0 l0 1.8 c0.2 -0.5 1.26 -1.96 3.22 -1.96 z M44.54 13.219999999999999 l0 2.64 l-6.2 0 l0 -2.64 l6.2 0 z M57.36 6 l-6.14 11.24 l6.22 0 l0 2.76 l-11.3 0 l6.14 -11.24 l-5.8 0 l0 -2.76 l10.88 0 z M64.32 9.42 c2.36 0 5.48 1.78 5.48 5.42 c0 3.66 -3.12 5.36 -5.48 5.36 s-5.48 -1.7 -5.48 -5.36 c0 -3.64 3.12 -5.42 5.48 -5.42 z M64.32 12.2 c-1.2 0 -2.42 0.92 -2.42 2.64 c0 1.66 1.22 2.58 2.42 2.58 s2.44 -0.92 2.44 -2.58 c0 -1.72 -1.24 -2.64 -2.44 -2.64 z M77.9 9.44 c1.94 0 3.92 1.3 3.92 4.6 l0 5.96 l-3.16 0 l0 -5.74 c0 -1.58 -0.54 -2.08 -1.54 -2.08 c-1.42 0 -2.24 1.38 -2.44 1.98 l0 5.84 l-3.16 0 l0 -10.4 l3.16 0 l0 1.8 c0.2 -0.5 1.26 -1.96 3.22 -1.96 z M88.9 9.42 c2.36 0 5.66 1.78 5 6.48 l-7.26 0 c0.36 1.08 1.3 1.64 2.56 1.64 c1.28 0 1.68 -0.28 2.4 -0.58 l1.74 1.68 c-0.92 0.9 -2.16 1.56 -4.26 1.56 c-2.58 0 -5.66 -1.78 -5.66 -5.36 c0 -3.64 3.12 -5.42 5.48 -5.42 z M88.9 12.120000000000001 c-0.9 0 -1.82 0.52 -2.22 1.56 l4.42 0 c-0.32 -1.04 -1.3 -1.56 -2.2 -1.56 z"></path>
    </g>
</svg>